<?xml version="1.0" standalone="no"?>
<!DOCTYPE svg PUBLIC "-//W3C//DTD SVG 20010904//EN"
 "http://www.w3.org/TR/2001/REC-SVG-20010904/DTD/svg10.dtd">
<svg version="1.0" xmlns="http://www.w3.org/2000/svg"
 width="320.000000pt" height="264.000000pt" viewBox="0 0 320.000000 264.000000"
 preserveAspectRatio="xMidYMid meet">
<metadata>
Created by potrace 1.15, written by Peter Selinger 2001-2017
</metadata>
<g transform="translate(0.000000,264.000000) scale(0.100000,-0.100000)"
fill="#000000" stroke="none">
<path d="M2133 2599 c-34 -4 -84 -18 -110 -30 -41 -19 -68 -22 -183 -24 -153
-2 -213 -15 -330 -72 -200 -96 -399 -413 -400 -636 0 -71 21 -116 58 -123 l27
-6 0 -101 c0 -109 18 -179 55 -212 13 -12 18 -25 14 -40 -9 -37 14 -102 46
-128 l29 -25 -170 6 c-165 5 -169 4 -169 -15 0 -12 29 -117 64 -234 92 -306
117 -399 111 -409 -3 -4 -35 -14 -73 -20 -64 -11 -71 -10 -157 19 -262 88
-514 63 -762 -75 -91 -50 -119 -105 -72 -137 20 -15 20 -15 -15 -27 -51 -17
-96 -57 -96 -86 0 -33 44 -59 130 -78 21 -4 25 -11 25 -37 0 -69 96 -99 336
-106 191 -6 243 2 350 53 83 40 143 85 209 156 43 45 49 49 118 59 41 6 85 8
98 5 18 -5 46 4 97 30 40 20 77 40 83 45 6 5 30 -19 65 -69 30 -42 66 -83 80
-91 37 -20 78 -7 92 29 6 17 16 30 22 30 5 0 46 25 91 55 59 40 87 67 104 98
l23 43 181 32 c190 34 192 34 256 -4 51 -30 142 1 163 56 10 25 17 29 86 39
215 33 476 83 488 93 10 8 13 32 11 87 -3 74 -4 76 -30 79 -20 2 -512 -80
-611 -102 -12 -3 -21 3 -27 19 -6 15 -44 43 -105 77 l-95 55 112 6 c192 11
352 64 437 147 23 22 50 40 62 40 60 0 119 66 119 134 0 30 8 47 34 76 25 28
38 56 50 108 9 39 16 78 16 87 0 9 6 15 13 14 35 -4 60 3 82 26 22 22 25 32
25 105 0 197 -94 461 -226 638 -133 177 -383 310 -644 342 -93 11 -98 11 -187
-1z m-345 -619 c58 -42 141 -157 214 -296 58 -110 65 -119 94 -122 44 -4 86
46 109 132 l18 66 24 -33 c13 -17 46 -56 74 -84 l51 -52 -25 -12 c-33 -15 -42
-37 -22 -59 13 -15 12 -19 -14 -44 -16 -16 -39 -51 -51 -78 l-21 -50 -87 7
c-137 10 -139 10 -146 54 -3 20 -17 59 -31 85 -20 38 -23 50 -13 65 6 10 8 26
5 35 -17 43 -243 110 -293 87 -22 -10 -25 -16 -21 -40 5 -25 2 -31 -24 -41
-42 -18 -113 -101 -128 -150 -9 -30 -16 -40 -27 -36 -9 3 -26 6 -38 6 -19 0
-21 4 -18 34 3 28 7 33 23 29 34 -9 57 26 115 176 54 138 118 278 151 328 20
30 32 29 81 -7z m888 -399 c65 -125 115 -191 145 -191 16 0 19 -7 19 -45 l0
-45 -40 0 c-35 0 -40 3 -40 24 0 62 -44 141 -106 187 -27 21 -31 28 -19 33 29
11 14 50 -23 61 -27 8 -32 13 -28 30 3 11 6 38 6 60 0 36 1 38 13 20 8 -11 40
-71 73 -134z m-812 -31 c20 -14 49 -43 64 -64 24 -35 27 -49 27 -116 0 -67 -3
-82 -28 -119 -74 -112 -224 -130 -323 -39 -117 108 -82 295 66 357 14 6 55 10
91 8 51 -2 75 -8 103 -27z m694 -42 c98 -25 172 -138 156 -239 -10 -58 -60
-128 -114 -157 -65 -34 -162 -29 -222 13 -143 102 -108 330 59 382 50 15 65
15 121 1z m-1068 -170 c0 -18 9 -51 19 -73 57 -125 189 -183 323 -143 71 21
168 127 168 184 0 14 11 15 93 10 144 -11 144 -11 151 -57 19 -121 137 -219
261 -219 93 0 198 73 236 164 21 53 23 55 53 49 17 -3 32 -7 34 -8 1 -1 -7
-28 -19 -59 -27 -74 -80 -128 -160 -165 -104 -49 -171 -62 -336 -68 -415 -15
-780 100 -863 271 -11 24 -25 67 -29 95 l-8 51 38 0 c37 0 39 -1 39 -32z
m1550 -602 c0 -19 3 -18 -268 -67 -168 -29 -237 -38 -245 -30 -6 6 -8 13 -5
17 7 6 458 91 496 93 13 1 22 -5 22 -13z"/>
<path d="M1702 1475 c-39 -33 -48 -74 -27 -118 25 -53 72 -69 124 -42 62 31
66 130 8 165 -43 26 -69 25 -105 -5z"/>
<path d="M2433 1406 c-23 -20 -28 -32 -28 -71 0 -39 5 -51 28 -71 18 -15 41
-24 62 -24 21 0 44 9 62 24 23 20 28 32 28 71 0 39 -5 51 -28 71 -18 15 -41
24 -62 24 -21 0 -44 -9 -62 -24z"/>
</g>
</svg>
