<?xml version="1.0" standalone="no"?>
<!DOCTYPE svg PUBLIC "-//W3C//DTD SVG 20010904//EN"
 "http://www.w3.org/TR/2001/REC-SVG-20010904/DTD/svg10.dtd">
<svg version="1.0" xmlns="http://www.w3.org/2000/svg"
 width="570.000000pt" height="570.000000pt" viewBox="0 0 570.000000 570.000000"
 preserveAspectRatio="xMidYMid meet">

<g transform="translate(0.000000,570.000000) scale(0.100000,-0.100000)"
fill="#000000" stroke="none">
<path d="M3275 5204 c-38 -7 -101 -18 -140 -24 -119 -20 -241 -50 -348 -85
-107 -36 -154 -71 -189 -140 -20 -38 -67 -193 -109 -355 -17 -69 -43 -155 -56
-192 -27 -72 -34 -78 -139 -112 -40 -13 -58 -26 -81 -59 -39 -56 -87 -164
-113 -257 -78 -274 -74 -266 -177 -374 -159 -170 -171 -221 -109 -476 41 -168
58 -285 50 -332 -4 -18 -23 -87 -44 -153 -21 -66 -43 -157 -49 -203 -13 -102
-55 -196 -123 -272 -27 -30 -63 -83 -80 -118 -28 -57 -31 -70 -30 -160 0 -55
10 -144 22 -207 29 -147 29 -238 0 -295 -28 -54 -37 -63 -91 -92 -61 -32 -197
-30 -379 5 -323 62 -489 64 -666 6 -150 -49 -303 -158 -349 -250 -17 -32 -25
-65 -25 -99 0 -49 3 -54 54 -105 72 -70 179 -132 291 -167 270 -85 415 -103
810 -102 391 1 545 17 975 102 130 26 433 108 485 132 11 5 76 26 145 46 69
20 137 43 152 51 15 7 31 12 35 11 4 -1 73 19 153 44 372 120 615 164 982 178
247 10 368 26 476 65 37 13 171 51 297 85 236 63 443 129 505 161 19 9 61 41
92 69 73 65 96 128 78 214 -22 106 -118 208 -207 222 -145 22 -535 -41 -662
-106 -50 -25 -190 -78 -226 -85 -68 -14 -105 25 -119 126 -6 37 -25 70 -105
177 -72 95 -119 171 -172 279 -40 81 -110 216 -155 298 -48 88 -87 173 -94
205 -7 30 -23 90 -36 133 -29 95 -30 155 -4 239 11 34 20 71 20 81 0 29 -37
93 -85 147 -54 61 -55 62 -206 425 -16 39 -51 114 -78 168 l-50 96 21 26 c11
14 43 37 71 52 135 68 154 106 121 239 -24 95 -26 94 182 95 190 1 417 21 508
44 117 30 136 82 59 157 -104 101 -268 173 -563 247 -91 23 -182 46 -202 52
-20 5 -61 31 -90 57 -108 97 -129 105 -233 86z m-422 -301 c13 -21 36 -69 52
-108 61 -150 124 -253 169 -277 37 -20 46 13 46 173 0 80 3 161 6 178 9 44 30
33 27 -15 -6 -94 8 -161 45 -223 29 -48 145 -181 239 -274 4 -5 -17 7 -47 27
-54 35 -100 47 -100 25 0 -13 56 -127 72 -146 7 -9 7 -13 -1 -13 -14 0 -32 19
-100 109 -78 103 -106 104 -156 6 l-28 -57 -17 45 c-23 60 -78 136 -112 153
-29 15 -34 33 -19 62 9 17 -28 116 -95 257 -25 53 -36 99 -27 109 13 12 23 5
46 -31z m-322 -1369 c30 -9 66 -25 81 -35 14 -11 31 -19 37 -19 19 0 162 -151
266 -280 55 -69 136 -162 181 -207 70 -72 85 -83 115 -83 44 0 109 18 109 30
0 6 5 10 11 10 10 0 182 112 224 146 27 22 121 64 143 64 44 0 52 -38 25 -116
-22 -66 -70 -133 -122 -169 -53 -37 -121 -100 -121 -111 0 -5 20 -34 45 -64
25 -30 41 -56 36 -58 -5 -2 -62 27 -126 65 -217 127 -196 119 -262 105 -76
-15 -220 -87 -315 -156 -95 -70 -166 -106 -208 -106 -27 0 -31 2 -20 15 7 8
53 40 104 72 101 64 172 119 181 141 9 25 -4 49 -33 61 -15 6 -68 22 -118 35
-50 13 -101 29 -112 35 -27 14 -59 58 -106 143 -43 78 -95 126 -164 151 -74
27 -78 55 -16 102 43 33 66 68 58 88 -3 9 -39 34 -80 57 -41 22 -74 45 -74 51
0 19 92 46 166 48 22 0 65 -6 95 -15z m1112 -1143 c73 -6 81 -9 109 -41 17
-19 50 -65 73 -101 44 -67 74 -94 116 -104 39 -9 55 8 41 41 -7 14 -11 28 -9
30 6 7 75 -63 109 -111 63 -89 59 -124 -10 -86 -156 89 -272 121 -462 128
-162 7 -265 -4 -561 -56 -204 -36 -280 -52 -554 -113 -49 -11 -108 -23 -130
-28 -54 -12 -112 -33 -171 -63 -27 -14 -85 -37 -129 -52 -44 -15 -110 -44
-146 -65 -98 -58 -110 -59 -146 -13 -39 49 -53 77 -53 102 0 32 14 32 60 -2
37 -26 53 -31 99 -32 48 0 73 8 171 55 63 30 135 67 159 82 25 16 51 28 59 28
8 0 83 41 168 90 314 184 456 247 644 285 137 28 407 41 563 26z m1691 -621
c74 -23 136 -75 136 -114 0 -65 -156 -154 -327 -186 -141 -26 -177 -35 -303
-77 -266 -89 -351 -108 -625 -143 -170 -21 -285 -26 -285 -11 0 14 135 93 245
144 55 25 231 106 390 180 301 139 350 160 361 157 4 -1 10 3 14 9 11 19 191
60 261 61 40 0 93 -8 133 -20z"/>
</g>
</svg>
